<svg width="120" height="23" viewBox="0 0 120 23" fill="none" xmlns="http://www.w3.org/2000/svg">
<path d="M0.839844 18V0.9375H5.70312C7.25781 0.9375 8.42578 1.31641 9.20703 2.07422C9.99609 2.83203 10.3906 3.96875 10.3906 5.48438C10.3906 6.28125 10.1914 6.98438 9.79297 7.59375C9.39453 8.20312 8.85547 8.67578 8.17578 9.01172C8.95703 9.24609 9.57422 9.72656 10.0273 10.4531C10.4883 11.1797 10.7188 12.0547 10.7188 13.0781C10.7188 14.6094 10.2969 15.8125 9.45312 16.6875C8.61719 17.5625 7.42188 18 5.86719 18H0.839844ZM2.98438 10.0195V16.1602H5.91406C6.72656 16.1602 7.37109 15.8945 7.84766 15.3633C8.32422 14.8242 8.5625 14.0703 8.5625 13.1016C8.5625 11.0469 7.69531 10.0195 5.96094 10.0195H2.98438ZM2.98438 8.21484H5.73828C6.48047 8.21484 7.07812 7.96484 7.53125 7.46484C7.99219 6.96484 8.22266 6.30078 8.22266 5.47266C8.22266 4.53516 8.01562 3.85547 7.60156 3.43359C7.1875 3.00391 6.55469 2.78906 5.70312 2.78906H2.98438V8.21484Z" fill="#F0F8FA"/>
<path d="M16.2636 18.2344C14.6855 18.2344 13.4745 17.7656 12.6308 16.8281C11.787 15.8828 11.3573 14.5 11.3417 12.6797V11.1445C11.3417 9.25391 11.7519 7.77344 12.5722 6.70312C13.4003 5.625 14.5527 5.08594 16.0292 5.08594C17.5136 5.08594 18.623 5.55859 19.3573 6.50391C20.0917 7.44922 20.4667 8.92188 20.4823 10.9219V12.2812H13.4042V12.5742C13.4042 13.9336 13.6581 14.9219 14.1659 15.5391C14.6816 16.1562 15.4198 16.4648 16.3808 16.4648C16.9902 16.4648 17.5253 16.3516 17.9862 16.125C18.455 15.8906 18.8925 15.5234 19.2987 15.0234L20.3769 16.3359C19.4784 17.6016 18.1073 18.2344 16.2636 18.2344ZM16.0292 6.86719C15.1698 6.86719 14.5331 7.16406 14.1191 7.75781C13.705 8.34375 13.4706 9.25781 13.4159 10.5H18.4081V10.2188C18.3534 9.01562 18.1347 8.15625 17.7519 7.64062C17.3769 7.125 16.8027 6.86719 16.0292 6.86719Z" fill="#F0F8FA"/>
<path d="M27.2225 14.7539C27.2225 14.3086 27.0545 13.9258 26.7186 13.6055C26.3827 13.2852 25.7342 12.9102 24.7733 12.4805C23.6561 12.0195 22.867 11.625 22.4061 11.2969C21.953 10.9688 21.6131 10.5977 21.3866 10.1836C21.16 9.76172 21.0467 9.26172 21.0467 8.68359C21.0467 7.65234 21.4217 6.79688 22.1717 6.11719C22.9295 5.42969 23.8944 5.08594 25.0662 5.08594C26.3006 5.08594 27.2928 5.44531 28.0428 6.16406C28.7928 6.88281 29.1678 7.80469 29.1678 8.92969H27.1053C27.1053 8.35938 26.9139 7.875 26.5311 7.47656C26.1483 7.07031 25.66 6.86719 25.0662 6.86719C24.4569 6.86719 23.9764 7.02734 23.6248 7.34766C23.2811 7.66016 23.1092 8.08203 23.1092 8.61328C23.1092 9.03516 23.2342 9.375 23.4842 9.63281C23.742 9.89062 24.3553 10.2305 25.3241 10.6523C26.8631 11.2539 27.91 11.8438 28.4647 12.4219C29.0194 12.9922 29.2967 13.7188 29.2967 14.6016C29.2967 15.7031 28.9178 16.5859 28.16 17.25C27.4022 17.9062 26.3866 18.2344 25.1131 18.2344C23.7928 18.2344 22.7225 17.8555 21.9022 17.0977C21.0819 16.3398 20.6717 15.3789 20.6717 14.2148H22.7577C22.7811 14.918 22.9959 15.4688 23.4022 15.8672C23.8084 16.2656 24.3787 16.4648 25.1131 16.4648C25.8006 16.4648 26.3241 16.3125 26.6834 16.0078C27.0428 15.6953 27.2225 15.2773 27.2225 14.7539Z" fill="#F0F8FA"/>
<path d="M39.2478 12.2695C39.2478 14.2773 38.8845 15.7734 38.158 16.7578C37.4392 17.7422 36.4197 18.2344 35.0994 18.2344C33.8259 18.2344 32.8455 17.7539 32.158 16.793V22.875H30.0955V5.32031H31.9705L32.0759 6.72656C32.7712 5.63281 33.7673 5.08594 35.0642 5.08594C36.4548 5.08594 37.4939 5.57031 38.1814 6.53906C38.8689 7.50781 39.2244 8.95703 39.2478 10.8867V12.2695ZM37.1853 11.0859C37.1853 9.66406 36.9666 8.61719 36.5291 7.94531C36.0916 7.26562 35.3884 6.92578 34.4197 6.92578C33.4275 6.92578 32.6736 7.42188 32.158 8.41406V15.0117C32.6658 15.9805 33.4275 16.4648 34.4431 16.4648C35.3806 16.4648 36.0681 16.1289 36.5056 15.457C36.9509 14.7773 37.1775 13.7422 37.1853 12.3516V11.0859Z" fill="#F0F8FA"/>
<path d="M39.5661 11.0742C39.5661 9.23047 40.0114 7.77344 40.902 6.70312C41.8005 5.625 42.9841 5.08594 44.4528 5.08594C45.9216 5.08594 47.1012 5.60938 47.9919 6.65625C48.8903 7.70312 49.3512 9.12891 49.3747 10.9336V12.2695C49.3747 14.1055 48.9294 15.5586 48.0387 16.6289C47.1481 17.6992 45.9606 18.2344 44.4762 18.2344C43.0075 18.2344 41.8278 17.7148 40.9372 16.6758C40.0544 15.6367 39.5973 14.2305 39.5661 12.457V11.0742ZM41.6403 12.2695C41.6403 13.5742 41.8942 14.6016 42.402 15.3516C42.9177 16.0938 43.6091 16.4648 44.4762 16.4648C46.3044 16.4648 47.2458 15.1445 47.3005 12.5039V11.0742C47.3005 9.77734 47.0427 8.75391 46.527 8.00391C46.0114 7.24609 45.32 6.86719 44.4528 6.86719C43.6012 6.86719 42.9177 7.24609 42.402 8.00391C41.8942 8.75391 41.6403 9.77344 41.6403 11.0625V12.2695Z" fill="#F0F8FA"/>
<path d="M53.3141 12.1992L52.2125 13.4648V18H50.1383V0H52.2125V10.7695L56.1617 5.32031H58.6461L54.6148 10.6172L59.1734 18H56.7594L53.3141 12.1992Z" fill="#F0F8FA"/>
<path d="M63.3355 18.2344C61.7573 18.2344 60.5464 17.7656 59.7027 16.8281C58.8589 15.8828 58.4292 14.5 58.4136 12.6797V11.1445C58.4136 9.25391 58.8237 7.77344 59.6441 6.70312C60.4722 5.625 61.6245 5.08594 63.1011 5.08594C64.5855 5.08594 65.6948 5.55859 66.4292 6.50391C67.1636 7.44922 67.5386 8.92188 67.5542 10.9219V12.2812H60.4761V12.5742C60.4761 13.9336 60.73 14.9219 61.2378 15.5391C61.7534 16.1562 62.4917 16.4648 63.4527 16.4648C64.062 16.4648 64.5972 16.3516 65.0581 16.125C65.5269 15.8906 65.9644 15.5234 66.3706 15.0234L67.4487 16.3359C66.5503 17.6016 65.1792 18.2344 63.3355 18.2344ZM63.1011 6.86719C62.2417 6.86719 61.605 7.16406 61.1909 7.75781C60.7769 8.34375 60.5425 9.25781 60.4878 10.5H65.48V10.2188C65.4253 9.01562 65.2066 8.15625 64.8237 7.64062C64.4487 7.125 63.8745 6.86719 63.1011 6.86719Z" fill="#F0F8FA"/>
<path d="M74.7767 0.9375L79.2298 14.8594L83.683 0.9375H86.4486V18H84.3041V11.3555L84.5033 4.69922L80.0384 18H78.3978L73.9564 4.74609L74.1556 11.3555V18H72.0111V0.9375H74.7767Z" fill="#F0F8FA"/>
<path d="M92.4739 18.2344C90.8958 18.2344 89.6848 17.7656 88.8411 16.8281C87.9973 15.8828 87.5677 14.5 87.552 12.6797V11.1445C87.552 9.25391 87.9622 7.77344 88.7825 6.70312C89.6106 5.625 90.763 5.08594 92.2395 5.08594C93.7239 5.08594 94.8333 5.55859 95.5677 6.50391C96.302 7.44922 96.677 8.92188 96.6927 10.9219V12.2812H89.6145V12.5742C89.6145 13.9336 89.8684 14.9219 90.3763 15.5391C90.8919 16.1562 91.6302 16.4648 92.5911 16.4648C93.2005 16.4648 93.7356 16.3516 94.1966 16.125C94.6653 15.8906 95.1028 15.5234 95.5091 15.0234L96.5872 16.3359C95.6888 17.6016 94.3177 18.2344 92.4739 18.2344ZM92.2395 6.86719C91.3802 6.86719 90.7434 7.16406 90.3294 7.75781C89.9153 8.34375 89.6809 9.25781 89.6263 10.5H94.6184V10.2188C94.5638 9.01562 94.345 8.15625 93.9622 7.64062C93.5872 7.125 93.013 6.86719 92.2395 6.86719Z" fill="#F0F8FA"/>
<path d="M96.8352 11.0859C96.8352 9.13281 97.1984 7.64453 97.925 6.62109C98.6594 5.59766 99.7102 5.08594 101.077 5.08594C102.288 5.08594 103.234 5.57812 103.913 6.5625V0H105.988V18H104.089L103.984 16.6406C103.304 17.7031 102.331 18.2344 101.066 18.2344C99.7531 18.2344 98.7219 17.7266 97.9719 16.7109C97.2297 15.6875 96.8508 14.2461 96.8352 12.3867V11.0859ZM98.9094 12.2695C98.9094 13.6914 99.1203 14.7383 99.5422 15.4102C99.9641 16.0742 100.652 16.4062 101.605 16.4062C102.636 16.4062 103.405 15.8867 103.913 14.8477V8.44922C103.382 7.43359 102.616 6.92578 101.616 6.92578C100.663 6.92578 99.9758 7.26172 99.5539 7.93359C99.132 8.59766 98.9172 9.62109 98.9094 11.0039V12.2695Z" fill="#F0F8FA"/>
<path d="M109.493 18H107.419V5.32031H109.493V18ZM109.657 1.95703C109.657 2.30859 109.56 2.60156 109.364 2.83594C109.169 3.07031 108.872 3.1875 108.474 3.1875C108.083 3.1875 107.79 3.07031 107.595 2.83594C107.4 2.60156 107.302 2.30859 107.302 1.95703C107.302 1.60547 107.4 1.30859 107.595 1.06641C107.79 0.824219 108.083 0.703125 108.474 0.703125C108.864 0.703125 109.157 0.828125 109.353 1.07812C109.556 1.32031 109.657 1.61328 109.657 1.95703Z" fill="#F0F8FA"/>
<path d="M117.37 18C117.245 17.7266 117.155 17.2656 117.101 16.6172C116.366 17.6953 115.429 18.2344 114.288 18.2344C113.14 18.2344 112.241 17.9141 111.593 17.2734C110.952 16.625 110.632 15.7148 110.632 14.543C110.632 13.2539 111.069 12.2305 111.944 11.4727C112.819 10.7148 114.019 10.3281 115.542 10.3125H117.065V8.96484C117.065 8.20703 116.897 7.66797 116.562 7.34766C116.226 7.02734 115.714 6.86719 115.026 6.86719C114.401 6.86719 113.894 7.05469 113.503 7.42969C113.112 7.79688 112.917 8.26562 112.917 8.83594H110.843C110.843 8.1875 111.034 7.57031 111.417 6.98438C111.8 6.39062 112.315 5.92578 112.964 5.58984C113.612 5.25391 114.335 5.08594 115.132 5.08594C116.429 5.08594 117.413 5.41016 118.085 6.05859C118.765 6.69922 119.112 7.63672 119.128 8.87109V15.2695C119.136 16.2461 119.269 17.0938 119.526 17.8125V18H117.37ZM114.605 16.3477C115.112 16.3477 115.597 16.207 116.058 15.9258C116.519 15.6445 116.855 15.293 117.065 14.8711V11.8477H115.894C114.909 11.8633 114.132 12.0859 113.562 12.5156C112.991 12.9375 112.706 13.5312 112.706 14.2969C112.706 15.0156 112.851 15.5391 113.14 15.8672C113.429 16.1875 113.917 16.3477 114.605 16.3477Z" fill="#F0F8FA"/>
</svg>
